<?xml version="1.0" encoding="utf-8"?>
<!-- Generator: Adobe Illustrator 16.0.4, SVG Export Plug-In . SVG Version: 6.00 Build 0)  -->
<!DOCTYPE svg PUBLIC "-//W3C//DTD SVG 1.1//EN" "http://www.w3.org/Graphics/SVG/1.1/DTD/svg11.dtd">
<svg version="1.1" id="status_failed" xmlns="http://www.w3.org/2000/svg" xmlns:xlink="http://www.w3.org/1999/xlink" x="0px"
	 y="0px" width="595.28px" height="595.281px" viewBox="0 123.304 595.28 595.281"
	 enable-background="new 0 123.304 595.28 595.281" xml:space="preserve">
<g>
	<path fill="#DB3B21" d="M0,420.945C0,256.563,133.258,123.304,297.64,123.304c164.382,0,297.64,133.258,297.64,297.641
		c0,164.382-133.258,297.64-297.64,297.64C133.258,718.585,0,585.327,0,420.945z"/>
	<path fill="#FFFFFF" d="M552.76,420.945c0-140.899-114.222-255.12-255.12-255.12S42.52,280.046,42.52,420.945
		c0,140.898,114.222,255.121,255.12,255.121S552.76,561.844,552.76,420.945z"/>
	<path fill="#DB3B21" d="M297.64,377.107l-59.57-59.571c-4.828-4.803-12.636-4.782-17.438,0.045
		c-0.041,0.042-0.082,0.083-0.121,0.125l-26.107,26.107c-4.853,4.821-4.927,12.646-0.17,17.561l59.527,59.571l-59.527,59.57
		c-4.804,4.828-4.783,12.637,0.045,17.438c0.041,0.041,0.083,0.082,0.125,0.122l26.106,26.106c4.806,4.849,12.757,4.976,17.562,0.17
		l59.57-59.526l59.57,59.526c4.827,4.804,12.636,4.783,17.438-0.045c0.041-0.041,0.082-0.083,0.122-0.125l26.107-26.106
		c4.852-4.821,4.927-12.646,0.171-17.562l-59.528-59.57l59.527-59.571c4.804-4.828,4.782-12.635-0.045-17.438
		c-0.041-0.041-0.083-0.082-0.125-0.122l-26.107-26.107c-4.821-4.851-12.646-4.927-17.561-0.17l-59.57,59.528V377.107
		L297.64,377.107z"/>
</g>
</svg>
