<?xml version="1.0" encoding="utf-8"?>
<!-- Generator: Adobe Illustrator 16.0.4, SVG Export Plug-In . SVG Version: 6.00 Build 0)  -->
<!DOCTYPE svg PUBLIC "-//W3C//DTD SVG 1.1//EN" "http://www.w3.org/Graphics/SVG/1.1/DTD/svg11.dtd">
<svg version="1.1" id="status_pending" xmlns="http://www.w3.org/2000/svg" xmlns:xlink="http://www.w3.org/1999/xlink" x="0px"
	 y="0px" width="595.28px" height="595.281px" viewBox="0 123.304 595.28 595.281"
	 enable-background="new 0 123.304 595.28 595.281" xml:space="preserve">
<g>
	<path fill="#FC9403" d="M0,420.945C0,256.563,133.258,123.304,297.64,123.304c164.382,0,297.64,133.258,297.64,297.641
		c0,164.382-133.258,297.64-297.64,297.64C133.258,718.585,0,585.327,0,420.945z"/>
	<path fill="#FFFFFF" d="M552.76,420.945c0-140.899-114.222-255.12-255.12-255.12S42.52,280.046,42.52,420.945
		c0,140.898,114.222,255.121,255.12,255.121S552.76,561.844,552.76,420.945z"/>
	<path fill="#FC9403" d="M199.844,348.661c0-8.504,4.252-12.756,12.756-12.756h38.269c8.504,0,12.756,4.252,12.756,12.756v144.567
		c0,8.505-4.252,12.757-12.756,12.757H212.6c-8.504,0-12.756-4.252-12.756-12.757V348.661 M327.404,348.661
		c0-8.504,4.252-12.756,12.757-12.756h38.269c8.504,0,12.756,4.252,12.756,12.756v144.567c0,8.505-4.252,12.757-12.756,12.757
		h-38.27c-8.505,0-12.757-4.252-12.757-12.757L327.404,348.661"/>
</g>
</svg>
