<?xml version="1.0" encoding="utf-8"?>
<!-- Generator: Adobe Illustrator 16.0.4, SVG Export Plug-In . SVG Version: 6.00 Build 0)  -->
<!DOCTYPE svg PUBLIC "-//W3C//DTD SVG 1.1//EN" "http://www.w3.org/Graphics/SVG/1.1/DTD/svg11.dtd">
<svg version="1.1" id="status_success" xmlns="http://www.w3.org/2000/svg" xmlns:xlink="http://www.w3.org/1999/xlink" x="0px"
	 y="0px" width="595.28px" height="595.281px" viewBox="0 123.304 595.28 595.281"
	 enable-background="new 0 123.304 595.28 595.281" xml:space="preserve">
<g>
	<path fill="#1AAA55" d="M0,420.945C0,256.563,133.258,123.304,297.64,123.304c164.382,0,297.64,133.258,297.64,297.641
		c0,164.382-133.258,297.64-297.64,297.64C133.258,718.585,0,585.327,0,420.945z"/>
	<path fill="#FFFFFF" d="M552.76,420.945c0-140.899-114.222-255.12-255.12-255.12S42.52,280.046,42.52,420.945
		c0,140.898,114.222,255.121,255.12,255.121S552.76,561.844,552.76,420.945z"/>
	<path fill="#1AAA55" d="M266.941,450.581l-52.427-52.427c-4.876-4.955-12.845-5.02-17.8-0.144c-0.021,0.02-0.04,0.039-0.06,0.059
		l-26.065,26.107c-4.884,4.965-4.846,12.94,0.085,17.858l81.215,81.171c8.224,8.246,21.551,8.341,29.892,0.212l11.268-11.269
		l132.024-132.023c4.628-4.918,4.458-12.639-0.383-17.348l-26.107-26.107c-4.698-4.863-12.438-5.034-17.348-0.383L266.941,450.581z"
		/>
</g>
</svg>
