<?xml version="1.0" encoding="utf-8"?>
<!-- Generator: Adobe Illustrator 16.0.4, SVG Export Plug-In . SVG Version: 6.00 Build 0)  -->
<!DOCTYPE svg PUBLIC "-//W3C//DTD SVG 1.1//EN" "http://www.w3.org/Graphics/SVG/1.1/DTD/svg11.dtd">
<svg version="1.1" id="status_skipped" xmlns="http://www.w3.org/2000/svg" xmlns:xlink="http://www.w3.org/1999/xlink" x="0px"
	 y="0px" width="595.279px" height="595.28px" viewBox="0 123.305 595.279 595.28"
	 enable-background="new 0 123.305 595.279 595.28" xml:space="preserve">
<path fill="#C4C4C4" d="M297.64,718.585C133.258,718.585,0,585.327,0,420.945c0-164.382,133.258-297.641,297.64-297.641
	s297.64,133.258,297.64,297.641C595.28,585.327,462.022,718.585,297.64,718.585z"/>
<path fill="#FFFFFF" d="M297.64,676.065c140.899,0,255.12-114.222,255.12-255.12c0-140.899-114.221-255.12-255.12-255.12
	c-140.898,0-255.12,114.221-255.12,255.12C42.52,561.844,156.741,676.065,297.64,676.065z"/>
<path fill="#C4C4C4" d="M272.766,422.646l-78.066-78.109c-4.818-4.939-4.742-12.843,0.17-17.688l14.839-14.839
	c4.698-4.93,12.504-5.118,17.434-0.42c0.086,0.083,0.172,0.166,0.255,0.25l94.14,94.139c0.283,0.284,0.553,0.582,0.808,0.893
	l5.612,5.655c4.678,4.677,4.593,12.374,0,16.923L227.1,530.349c-4.679,4.66-12.245,4.66-16.924,0l-14.073-14.073
	c-4.619-4.713-4.619-12.254,0-16.966L272.766,422.646z M380.767,422.646l-78.067-78.109c-4.817-4.939-4.742-12.843,0.17-17.688
	l14.84-14.839c4.698-4.93,12.503-5.118,17.434-0.42c0.086,0.083,0.171,0.166,0.255,0.25l94.14,94.139
	c0.283,0.284,0.553,0.582,0.808,0.893l5.612,5.655c4.678,4.677,4.593,12.374,0,16.923L335.1,530.349
	c-4.679,4.66-12.244,4.66-16.923,0l-14.074-14.073c-4.618-4.713-4.618-12.254,0-16.966L380.767,422.646z"/>
</svg>
