<?xml version="1.0" encoding="utf-8"?>
<!-- Generator: Adobe Illustrator 16.0.4, SVG Export Plug-In . SVG Version: 6.00 Build 0)  -->
<!DOCTYPE svg PUBLIC "-//W3C//DTD SVG 1.1//EN" "http://www.w3.org/Graphics/SVG/1.1/DTD/svg11.dtd">
<svg version="1.1" id="Ebene_1" xmlns="http://www.w3.org/2000/svg" xmlns:xlink="http://www.w3.org/1999/xlink" x="0px" y="0px"
	 width="32px" height="38px" viewBox="4 1 32 38" enable-background="new 4 1 32 38" xml:space="preserve">
<g>
	<g>
		<g>
			<path fill="#8F8F8F" d="M33.033,13.717l1.326-1.58c0.893-1.053,0.762-2.629-0.291-3.521c-0.004-0.003-0.008-0.006-0.012-0.009
				C33,7.719,31.424,7.856,30.536,8.914c-0.003,0.002-0.005,0.005-0.007,0.008l-1.016,1.212C27.585,8.704,25.358,7.728,23,7.28V6
				h2.993C26.55,6,27,5.552,27,5V2c0-0.552-0.447-1-1-1c-0.002,0-0.005,0-0.007,0H14.007C13.45,1,13,1.448,13,2v3
				c0,0.552,0.448,1,1,1c0.002,0,0.005,0,0.007,0H17v1.28C9.597,8.686,4,15.19,4,23c0,8.837,7.163,16,16,16s16-7.163,16-16
				C36,19.539,34.9,16.335,33.033,13.717z M20,34c-6.075,0-11-4.925-11-11s4.925-11,11-11s11,4.925,11,11S26.075,34,20,34z"/>
		</g>
	</g>
	<path fill="#8F8F8F" d="M19,21h-4.002C14.446,21,14,21.452,14,22.01v1.98c0,0.566,0.447,1.01,0.998,1.01h7.004
		c0.273,0,0.521-0.111,0.701-0.291C22.893,24.524,23,24.27,23,24.005v-8.01C23,15.455,22.548,15,21.99,15h-1.98
		c-0.55-0.007-1.002,0.434-1.01,0.984c0,0.004,0,0.007,0,0.011V21z"/>
</g>
</svg>
